<svg width="896" height="710" viewBox="0 0 896 710" fill="none" xmlns="http://www.w3.org/2000/svg">
<path d="M32.8521 673.748C102.592 670.341 339.836 676.113 411.989 678.364C484.142 680.614 567.896 675.395 611.401 667.719C654.907 660.044 906.384 668.372 894.972 689.008C883.56 709.644 782.928 698.239 668.808 706.533C554.689 714.828 298.032 705.497 240.138 706.533C182.245 707.571 129.157 704.46 54.5494 700.313C-20.0577 696.166 -7.57251 675.723 32.8521 673.748Z" fill="#0172D0"/>
<path d="M96.5444 517.616L87.9522 512.743C85.5769 516.527 82.6869 519.92 79.881 522.478C77.5384 524.612 73.9416 524.561 71.6595 522.362L71.3845 522.097C68.8701 519.674 68.9283 515.611 71.5413 513.294C74.2038 510.933 76.7877 507.981 78.7945 504.442C81.7177 499.287 81.7283 494.631 78.1112 492.58C74.6743 490.631 70.8623 492.295 64.8056 497.705C56.0623 505.536 47.7957 509.573 39.023 504.598C31.064 500.086 28.0031 490.939 31.592 480.185L23 475.313L28.0262 466.449L35.9847 470.963C37.9973 467.757 39.9702 465.304 41.8556 463.385C44.1594 461.041 47.9304 461.01 50.2968 463.291C52.7439 465.65 52.7553 469.571 50.3106 471.933C48.4785 473.703 46.4885 476.047 44.6787 479.24C41.3448 485.118 42.8003 488.453 45.3327 489.889C48.3174 491.582 52.0114 489.493 59.2651 483.446C69.1667 474.838 76.6031 473.318 84.7426 477.934C92.7925 482.499 96.4349 492.094 92.3453 503.521L101.571 508.752L96.5444 517.616Z" fill="#FAE0B2"/>
<path d="M509.828 655.535C531.494 626.376 548.895 626.122 548.895 626.122C548.895 626.122 556.793 574.892 550.492 553.099C544.192 531.305 515.7 550.417 515.7 550.417C515.7 550.417 553.474 476.371 537.98 468.053C509.122 452.56 463.662 531.103 463.662 531.103C463.662 531.103 474.309 496.531 453.901 496.66C423.124 496.852 420.462 576.119 420.462 576.119C420.462 576.119 414.393 560.502 395.405 569.449C374.951 579.086 369.411 637.12 368.249 681.967H476.066C491.491 672.52 504.091 663.257 509.828 655.535Z" fill="#466EB6"/>
<path d="M467.435 524.789C467.435 524.789 468.701 485.395 448.292 485.522C417.515 485.716 420.462 576.12 420.462 576.12C420.462 576.12 407.606 550.541 388.617 559.488C367.777 569.308 365.302 633.451 366.118 681.967H401.933L537.981 468.053C509.122 452.561 467.435 524.789 467.435 524.789Z" fill="#355389"/>
<path d="M635.022 679.406C635.022 679.406 733.273 690.719 757.073 682.382C780.872 674.047 765.112 660.718 765.112 660.718C765.112 660.718 815.444 654.29 820.3 639.309C825.156 624.329 801.34 624.233 801.34 624.233C801.34 624.233 851.863 596.358 846.191 585.548C835.627 565.415 778.937 592.885 778.937 592.885C778.937 592.885 798.507 577.152 786.724 569.286C768.955 557.424 736.588 601.961 736.588 601.961C736.588 601.961 739.175 590.621 724.778 588.378C698.946 584.353 635.022 679.406 635.022 679.406Z" fill="#466EB6"/>
<path d="M724.75 580.01C739.147 582.254 736.588 601.961 736.588 601.961C736.588 601.961 770.062 548.84 787.832 560.702C799.615 568.567 783.561 590.723 783.561 590.723C783.561 590.723 835.627 565.415 846.191 585.548L644.429 673.107C651.837 661.972 700.622 576.252 724.75 580.01Z" fill="#355389"/>
<path d="M634.414 680.836C634.414 680.836 723.819 618.63 736.681 591.281C749.543 563.934 724.912 566.212 724.912 566.212C724.912 566.212 761.689 517.784 752.961 501.05C744.232 484.317 724.148 504.597 724.148 504.597C724.148 504.597 742.751 437.992 728.746 433.762C702.66 425.883 677.141 510.227 677.141 510.227C677.141 510.227 667.398 463.565 650.777 467.031C625.712 472.26 650.722 541.248 650.722 541.248C650.722 541.248 643.327 518.776 629.318 529.2C604.181 547.904 634.414 680.836 634.414 680.836Z" fill="#466EB6"/>
<path d="M604.861 530.277C620.646 522.81 623.818 507.099 623.818 507.099C623.818 507.099 623.924 468.09 648.99 462.861C665.611 459.393 677.247 490.733 677.247 490.733C677.247 490.733 702.66 425.883 728.746 433.762L634.143 679.793C630.845 664.107 586.058 539.172 604.861 530.277Z" fill="#355389"/>
<path d="M606.847 681.029H426.56C420.811 681.029 416.15 676.369 416.15 670.619C416.15 664.87 420.811 660.209 426.56 660.209H606.847C612.596 660.209 617.257 664.87 617.257 670.619C617.257 676.369 612.596 681.029 606.847 681.029Z" fill="#F48C7F"/>
<path d="M638.38 660.827H458.093C452.344 660.827 447.683 656.166 447.683 650.417C447.683 644.669 452.344 640.008 458.093 640.008H638.38C644.129 640.008 648.79 644.669 648.79 650.417C648.79 656.166 644.129 660.827 638.38 660.827Z" fill="#F47458"/>
<path d="M613.154 641.689H432.867C427.118 641.689 422.457 637.028 422.457 631.279C422.457 625.53 427.118 620.869 432.867 620.869H613.154C618.903 620.869 623.564 625.53 623.564 631.279C623.564 637.028 618.903 641.689 613.154 641.689Z" fill="#F48C7F"/>
<path d="M592.132 620.956H411.845C406.096 620.956 401.435 616.295 401.435 610.546C401.435 604.796 406.096 600.136 411.845 600.136H592.132C597.882 600.136 602.543 604.796 602.543 610.546C602.543 616.295 597.882 620.956 592.132 620.956Z" fill="#F47458"/>
<path d="M629.699 687.083C679.483 687.083 719.84 646.725 719.84 596.942C719.84 547.158 679.483 506.801 629.699 506.801C579.916 506.801 539.558 547.158 539.558 596.942C539.558 646.725 579.916 687.083 629.699 687.083Z" fill="#FAE0B2"/>
<path d="M704.363 609.058C711.055 567.822 683.051 528.969 641.816 522.278C600.58 515.586 561.727 543.59 555.036 584.826C548.344 626.061 576.347 664.914 617.583 671.606C658.819 678.298 697.671 650.294 704.363 609.058Z" fill="#F7CC7F"/>
<path d="M606.281 645.51L610.585 633.638C605.308 631.453 600.413 628.536 596.59 625.546C593.399 623.05 592.694 618.505 594.978 615.159L595.253 614.756C597.77 611.067 602.904 610.273 606.382 613.071C609.926 615.922 614.2 618.548 619.09 620.321C626.213 622.904 632.084 621.921 633.896 616.923C635.618 612.175 632.706 607.725 624.591 601.248C612.851 591.902 605.995 582.346 610.39 570.225C614.377 559.228 625.251 553.415 639.573 555.639L643.877 543.767L656.124 548.208L652.136 559.204C656.606 561.055 660.12 563.017 662.942 564.983C666.39 567.386 667.235 572.133 664.865 575.603C662.415 579.192 657.476 580.044 653.976 577.468C651.352 575.537 647.973 573.531 643.562 571.931C635.44 568.986 631.548 571.534 630.279 575.032C628.784 579.156 632.206 583.366 641.378 591.216C654.345 601.856 657.852 610.904 653.774 622.15C649.741 633.272 638.425 639.915 623.149 637.204L618.527 649.95L606.281 645.51Z" fill="white"/>
<path d="M304.61 677.367C304.61 677.367 164.532 608.299 140.443 572.277C116.353 536.253 151.765 534.212 151.765 534.212C151.765 534.212 89.2549 473.417 98.0497 447.824C106.844 422.23 139.662 446.686 139.662 446.686C139.662 446.686 99.032 356.23 117.984 347.235C153.284 330.482 202.804 426.75 202.804 426.75C202.804 426.75 192.162 384.93 216.47 386.288C253.129 388.338 251.615 482.939 251.615 482.939C251.615 482.939 255.755 446.667 277.85 458.449C317.494 479.589 304.61 677.367 304.61 677.367Z" fill="#355389"/>
<path d="M285.826 443.817C268.572 434.242 251.388 462.226 251.388 462.226C251.388 462.226 253.129 388.338 216.47 386.288C192.161 384.93 202.804 426.75 202.804 426.75C202.804 426.75 153.284 330.482 117.983 347.235L304.77 675.83C306.09 652.883 320.005 462.783 285.826 443.817Z" fill="#466EB6"/>
<path d="M300.989 678.223C300.989 678.223 186.425 692.451 156.762 679.771C127.098 667.091 148.357 651.429 148.357 651.429C148.357 651.429 84.6632 638.91 79.7493 619.373C74.8348 599.835 105.242 601.754 105.242 601.754C105.242 601.754 43.1432 561.843 51.309 548.532C66.5198 523.738 136.525 563.662 136.525 563.662C136.525 563.662 112.894 541.901 128.608 532.872C152.306 519.253 189.801 578.875 189.801 578.875C189.801 578.875 187.472 564.18 206.042 562.551C239.358 559.628 300.989 678.223 300.989 678.223Z" fill="#355389"/>
<path d="M206.794 551.872C188.225 553.502 189.802 578.875 189.802 578.875C189.802 578.875 151.629 508.201 127.93 521.819C112.216 530.849 130.808 560.505 130.808 560.505C130.808 560.505 66.5204 523.738 51.3096 548.532L301.337 677.588C292.836 662.739 237.914 549.142 206.794 551.872Z" fill="#466EB6"/>
<path d="M624.621 123.94L620.537 134.121L603.43 129.359L595.621 143.509L582.236 142.038L581.492 148.813L599.394 150.781L606.793 137.372L624.59 142.326L630.736 127.005L624.621 123.94Z" fill="#0172D0"/>
<path d="M685.466 396.671L689.67 386.236C685.041 384.125 680.774 381.374 677.464 378.592C674.701 376.269 674.217 372.201 676.355 369.293L676.613 368.943C678.969 365.739 683.565 365.191 686.574 367.792C689.641 370.442 693.363 372.914 697.661 374.646C703.922 377.168 709.18 376.478 710.95 372.085C712.632 367.912 710.179 363.859 703.158 357.837C692.998 349.147 687.194 340.424 691.487 329.77C695.382 320.104 705.246 315.27 717.927 317.699L722.132 307.265L732.897 311.603L729.001 321.268C732.924 323.056 735.991 324.914 738.441 326.753C741.436 329 742.039 333.252 739.82 336.268C737.526 339.386 733.102 339.991 730.066 337.587C727.792 335.785 724.846 333.893 720.968 332.33C713.829 329.454 710.284 331.6 709.045 334.675C707.584 338.299 710.498 342.155 718.419 349.432C729.63 359.313 732.467 367.478 728.484 377.363C724.545 387.139 714.261 392.699 700.745 389.805L696.23 401.008L685.466 396.671Z" fill="#96D9C9"/>
<path d="M454.425 680.909H242.663C234.226 680.909 227.387 674.07 227.387 665.633C227.387 657.197 234.226 650.357 242.663 650.357H454.425C462.861 650.357 469.701 657.197 469.701 665.633C469.701 674.07 462.861 680.909 454.425 680.909Z" fill="#FAE0B2"/>
<path d="M486.253 650.669H286.901C278.465 650.669 271.626 643.83 271.626 635.393C271.626 626.956 278.465 620.117 286.901 620.117H486.253C494.69 620.117 501.53 626.956 501.53 635.393C501.53 643.83 494.69 650.669 486.253 650.669Z" fill="#F7CC7F"/>
<path d="M458.659 620.105H266.353C258.553 620.105 252.23 613.783 252.23 605.982V603.666C252.23 595.866 258.553 589.543 266.353 589.543H458.659C466.458 589.543 472.782 595.866 472.782 603.666V605.982C472.782 613.783 466.458 620.105 458.659 620.105Z" fill="#FAE0B2"/>
<path d="M458.457 589.627H265.285C257.619 589.627 251.405 583.413 251.405 575.747V572.955C251.405 565.29 257.619 559.076 265.285 559.076H458.456C466.121 559.076 472.336 565.29 472.336 572.956V575.748C472.336 583.413 466.122 589.627 458.457 589.627Z" fill="#F7CC7F"/>
<path d="M463.975 560.872H270.631C262.194 560.872 255.355 554.033 255.355 545.596C255.355 537.159 262.194 530.32 270.631 530.32H463.975C472.412 530.32 479.251 537.159 479.251 545.596C479.251 554.033 472.412 560.872 463.975 560.872Z" fill="#FAE0B2"/>
<path d="M455.631 530.706H262.286C253.85 530.706 247.01 523.866 247.01 515.43C247.01 506.993 253.85 500.154 262.286 500.154H455.631C464.067 500.154 470.907 506.993 470.907 515.43C470.907 523.866 464.067 530.706 455.631 530.706Z" fill="#F7CC7F"/>
<path d="M466.124 471.684H279.312C271.489 471.684 265.146 465.342 265.146 457.518V455.3C265.146 447.475 271.489 441.133 279.312 441.133H466.124C473.948 441.133 480.291 447.476 480.291 455.3V457.517C480.291 465.342 473.948 471.684 466.124 471.684Z" fill="#F7CC7F"/>
<path d="M482.702 501.06H303.2C295.519 501.06 289.293 494.834 289.293 487.153V484.415C289.293 476.734 295.519 470.508 303.2 470.508H482.702C490.383 470.508 496.609 476.734 496.609 484.414V487.153C496.609 494.834 490.383 501.06 482.702 501.06Z" fill="#FAE0B2"/>
<path d="M276.03 529.668C312.445 563.251 314.739 619.996 281.155 656.411C247.572 692.825 190.827 695.12 154.413 661.535C117.999 627.952 115.704 571.207 149.287 534.794C182.871 498.379 239.616 496.084 276.03 529.668Z" fill="#F48C7F"/>
<path d="M266.248 540.274C296.805 568.455 298.73 616.072 270.549 646.628C242.368 677.185 194.751 679.11 164.195 650.929C133.638 622.748 131.713 575.132 159.894 544.575C188.075 514.019 235.692 512.093 266.248 540.274Z" fill="#F7CC7F"/>
<path d="M264.584 619.108C266.315 621.381 266.194 624.561 264.295 626.696C260.568 630.883 254.476 635.948 246.821 639.706C235.624 645.202 222.763 646.884 210.622 642.738C203.035 640.148 195.805 634.854 190.363 627.631L183.747 630.879C181.499 631.983 178.78 631.055 177.677 628.807L177.593 628.636C176.489 626.387 177.417 623.669 179.665 622.565L185.094 619.9C184.008 618.117 183.256 617.014 182.756 615.995C181.923 614.299 181.093 612.18 180.35 609.807L174.751 612.555C172.502 613.66 169.785 612.732 168.681 610.482C167.577 608.234 168.505 605.517 170.754 604.413L177.54 601.081C175.574 592.361 175.893 583.573 178.482 575.984C182.887 563.085 192.594 553.266 204.3 547.519C211.124 544.169 216.873 542.814 221.582 542.304C224.855 541.949 227.822 544.248 228.296 547.507L228.311 547.609C228.802 550.987 226.43 554.088 223.048 554.555C219.203 555.086 214.717 556.301 209.627 558.799C202.163 562.464 195.864 568.504 192.759 577.187C191.031 582.246 190.565 588.16 192.299 593.835L230.472 575.095C232.72 573.991 235.438 574.919 236.542 577.168C237.646 579.416 236.718 582.133 234.47 583.237L194.601 602.811C195.346 604.761 196.093 606.71 196.677 607.898C197.426 609.426 198.176 610.951 199.344 612.905L239.298 593.289C241.594 592.162 244.369 593.11 245.496 595.405C246.623 597.701 245.675 600.476 243.38 601.603L205.123 620.385C208.726 624.721 213.183 627.796 217.737 629.351C226.759 632.29 234.711 631.334 243.193 627.17C248.365 624.631 252.559 621.431 255.69 618.423C258.266 615.949 262.419 616.265 264.584 619.108Z" fill="white"/>
<path d="M264.574 354.907C265.765 356.835 265.425 359.337 263.76 360.876C260.496 363.895 255.296 367.423 248.963 369.8C239.7 373.277 229.417 373.613 220.151 369.404C214.361 366.775 209.061 362.037 205.321 355.916L199.848 357.971C197.988 358.668 195.914 357.727 195.216 355.866L195.162 355.725C194.465 353.864 195.407 351.79 197.267 351.092L201.758 349.406C201.038 347.915 200.529 346.986 200.213 346.143C199.686 344.74 199.194 343.003 198.79 341.073L194.159 342.811C192.298 343.509 190.224 342.567 189.526 340.707C188.828 338.847 189.77 336.773 191.631 336.075L197.244 333.967C196.365 326.932 197.293 320.018 199.923 314.227C204.394 304.383 212.814 297.379 222.499 293.744C228.144 291.625 232.787 290.999 236.545 290.959C239.156 290.932 241.322 292.974 241.444 295.584L241.448 295.666C241.575 298.37 239.464 300.636 236.758 300.744C233.681 300.866 230.046 301.48 225.836 303.06C219.66 305.378 214.221 309.661 211.101 316.277C209.347 320.138 208.523 324.77 209.455 329.384L241.036 317.531C242.896 316.833 244.97 317.775 245.668 319.636C246.366 321.496 245.424 323.57 243.564 324.268L210.58 336.648C211.018 338.245 211.458 339.841 211.827 340.824C212.301 342.087 212.775 343.35 213.547 344.982L246.601 332.576C248.501 331.863 250.618 332.825 251.331 334.724C252.044 336.623 251.082 338.741 249.183 339.454L217.533 351.333C220.043 355.034 223.324 357.805 226.799 359.384C233.696 362.4 240.048 362.257 247.065 359.624C251.343 358.018 254.902 355.815 257.605 353.682C259.83 351.927 263.084 352.497 264.574 354.907Z" fill="#86B1F2"/>
<path d="M557.679 249.356L567.756 244.255L577.671 249.664C578.801 250.28 580.146 249.334 579.948 248.063L578.21 236.903L586.419 229.145C587.354 228.261 586.87 226.689 585.599 226.485L574.449 224.688L569.607 214.484C569.056 213.322 567.411 213.297 566.824 214.441L561.669 224.491L550.469 225.943C549.193 226.108 548.66 227.665 549.568 228.577L557.533 236.584L555.452 247.685C555.215 248.949 556.532 249.937 557.679 249.356Z" fill="#F7CC7F"/>
<path d="M355.432 44.5424L345.018 45.5996L341.466 29.031L326.049 28.6985L321.363 16.7339L315.307 19.1053L321.573 35.1078L336.183 35.423L339.878 52.659L355.549 51.0685L355.432 44.5424Z" fill="#50BFA5"/>
<path d="M569.419 292.826L580.561 296.501C580.561 296.501 598.226 290.777 599.966 287.176C601.706 283.576 602.197 274.84 604.71 274.602C607.224 274.363 612.081 275.181 613.238 281.16C614.078 285.499 607.722 298.043 608.715 299.379C609.336 300.214 615.68 302.51 620.341 304.111C623.406 305.164 625.618 307.862 626.088 311.116L626.09 311.125C626.408 313.325 625.162 315.467 623.103 316.262L619.898 317.5L620.921 320.81C621.681 323.274 620.332 325.922 617.899 326.738L615.419 327.57L616.212 329.585C617.233 332.182 615.794 335.127 613.127 335.903L610.961 336.533L611.05 337.112C611.422 339.521 609.913 341.84 607.575 342.452L605.422 343.016L575.75 333.223C572.97 332.306 570.411 330.82 568.229 328.856L558.373 323.655C557.314 323.096 556.827 321.83 557.227 320.679L566.363 294.371C566.804 293.1 568.165 292.412 569.419 292.826Z" fill="#FAE0B2"/>
<path d="M212.198 256.92C212.055 256.509 208.565 250.542 204.06 244.061C183.107 213.873 152.036 184.779 115.6 185.872L115.574 185.65C132.048 183.842 148.189 188.23 162.358 196.049C185.734 208.65 208.51 232.663 220.971 251.122L212.198 256.92Z" fill="#F7CC7F"/>
<path d="M451.818 219.254C451.818 219.254 452.888 217.094 452.823 212.104C452.743 205.934 451.507 196.617 451.26 195.794C450.813 194.304 470.772 188.049 470.772 188.049C470.772 188.049 502.796 186.41 507.563 182.835C512.329 179.261 516.34 177.788 514.117 181.495C510.095 188.197 500.711 198.028 498.626 199.369C496.54 200.709 471.665 206.965 471.219 206.965C470.772 206.965 470.921 222.605 470.921 222.605L451.818 219.254Z" fill="#F7A491"/>
<path d="M472.597 212.588C472.597 212.588 451.861 209.064 451.483 211.136C443.104 257.012 441.685 272.176 440.759 272.652C437.603 274.275 392.471 234.667 385.013 232.075C381.446 230.835 377.564 231.041 373.843 231.151C364.972 231.413 367.963 231.2 363.286 231.431L363.292 231.441C363.038 231.457 362.896 231.468 362.896 231.468L362.943 239.812C372.939 248.806 395.822 385.027 397.749 384.937C399.902 384.836 445.131 396.218 444.333 392.408C444.204 391.789 413.67 366.803 405.011 330.743C402.104 318.637 400.668 305.602 399.093 294.194C409.141 299.233 448.391 318.549 454.611 315.997C473.961 308.058 472.597 212.588 472.597 212.588Z" fill="#0172D0"/>
<path d="M550.486 454.457C550.486 454.457 592.567 487.419 593.97 493.263C595.993 501.68 634.526 490.614 625.234 488.901C623.096 488.507 616.254 486.771 615.691 486.471C612.683 484.863 575.239 439.742 575.239 439.742L550.486 454.457Z" fill="#F7A491"/>
<path d="M643.303 488.901L616.436 486.713C616.436 486.713 608.757 493.07 593.997 493.367C593.997 493.367 591.638 500.109 592.76 507.99C592.953 509.35 593.181 513.458 594.551 513.365C599.516 513.028 612.74 509.737 627.809 506.724C627.809 506.724 648.061 502.435 659.758 495.437C671.454 488.44 643.303 488.901 643.303 488.901Z" fill="#184655"/>
<path d="M361.938 371.773C361.938 371.773 392.754 376.951 426.835 368.978C466.27 359.752 509.876 351.223 522.653 358.651C532.936 364.63 597.157 461.67 597.157 461.67L572.357 479.767L501.645 400.586C501.645 400.586 411.429 433.873 391.167 430.184C345.021 421.782 344.364 384.929 361.938 371.773Z" fill="#B75742"/>
<path d="M395.627 352.192L426.46 388.833L369.263 406.26L361.938 371.773L395.627 352.192Z" fill="#B75742"/>
<path d="M458.287 519.561C458.287 519.561 456.413 570.456 455.25 579.075C454.094 587.654 476.849 613.503 473.941 604.512C473.272 602.444 471.548 595.599 471.546 594.961C471.531 591.549 479.985 533.49 479.985 533.49L458.287 519.561Z" fill="#F7A491"/>
<path d="M482.526 620.411L471.687 595.731C471.687 595.731 462.445 591.994 455.17 579.148C455.17 579.148 448.118 580.276 441.716 585.007C440.611 585.823 433.085 591.327 433.609 592.596C435.539 597.27 445.788 607.282 456.994 618.216C456.994 618.216 472.879 631.028 484.594 637.996C496.307 644.963 482.526 620.411 482.526 620.411Z" fill="#184655"/>
<path d="M508.234 419.219C497.456 404.85 410.492 391.203 410.492 391.203L386.244 344.595L332.622 377.662C332.622 377.662 337.982 420.33 342.005 431.731C347.367 446.923 383.403 447.698 405.413 447.471C425.664 447.263 462.654 451.392 462.654 451.392L450.143 561.764C450.143 561.764 474.735 567.361 481.646 566.456C482.427 566.353 521.639 437.093 508.234 419.219Z" fill="#F47458"/>
<path d="M363.193 231.542L332.939 233.2C332.939 233.2 332.247 233.444 332.036 233.483C329.572 233.939 331.811 322.102 334.009 355.031C336.207 387.959 340.664 401.792 340.664 401.792C340.664 401.792 381.696 394.507 394.287 389.619C399.512 387.591 412.16 371.779 412.16 371.779C412.16 371.779 399.239 354.406 392.73 326.189C387.71 304.426 381.519 265.847 377.976 257.794C369.84 239.3 363.193 231.542 363.193 231.542Z" fill="white"/>
<path d="M333.801 206.52L332.942 233.232C332.942 233.232 352.525 266.976 362.58 262.273C371.017 258.328 363.528 232.659 363.528 232.659C363.528 232.659 362.067 226.773 360.041 220.012C358.625 215.288 357.448 210.17 357.535 206.415C357.747 197.286 333.801 206.52 333.801 206.52Z" fill="#F7A491"/>
<path d="M357.197 145.598C357.197 145.598 367.178 160.642 367.922 173.302C368.667 185.963 365.986 194.602 365.986 194.602L333.962 156.322L357.197 145.598Z" fill="#184655"/>
<path d="M371.238 170.712C371.689 175.145 369.966 178.952 367.389 179.214C364.812 179.477 362.358 176.097 361.906 171.664C361.455 167.231 363.178 163.424 365.755 163.161C368.332 162.898 370.786 166.278 371.238 170.712Z" fill="#F48C7F"/>
<path d="M323.6 162.455C322.866 162.298 322.937 199.151 333.619 207.824C344.301 216.497 362.893 217.258 368.322 208.522C374.326 198.86 368.614 160.028 352.727 151.78C336.84 143.533 323.6 162.455 323.6 162.455Z" fill="#F7A491"/>
<path d="M320.891 139.602C312.737 146.752 308.788 151.975 303.271 164.686C296.486 180.316 309.947 196.51 321.233 202.945C332.52 209.38 333.478 217.28 333.478 217.28L333.924 212.365C334.408 208.548 333.254 206.369 332.174 204.061C331.213 202.007 328.127 194.97 326.924 193.113C323.748 188.215 323.122 187.154 324.69 182.5C325.897 178.916 324.499 171.017 326.365 165.11L341.558 161.833C341.558 161.833 351.065 159.548 355.866 154.009C369.651 138.106 342.397 120.372 320.891 139.602Z" fill="#184655"/>
<path d="M328.303 186.533C330.174 190.577 329.785 194.737 327.435 195.826C325.085 196.914 321.662 194.517 319.791 190.473C317.92 186.429 318.309 182.269 320.659 181.181C323.01 180.092 326.432 182.489 328.303 186.533Z" fill="#F7A491"/>
<path d="M123.685 199.738L121.22 182.762L133.808 171.107C135.242 169.779 134.531 167.384 132.605 167.053L115.697 164.151L108.503 148.578C107.683 146.804 105.186 146.74 104.276 148.469L96.291 163.653L79.2569 165.683C77.3165 165.914 76.4837 168.269 77.8472 169.669L89.8205 181.955L86.4868 198.783C86.1069 200.7 88.0904 202.22 89.8428 201.355L105.227 193.765L120.201 202.135C121.907 203.089 123.965 201.672 123.685 199.738Z" fill="#F7CC7F"/>
<path d="M224.779 84.8716C226.505 91.9654 229.619 103.178 229.619 103.178C229.373 106.259 228.462 119.087 227.379 134.808L250.487 125.56C250.487 125.56 250.211 99.9434 251.242 98.3756C252.113 97.0499 253.578 98.7044 260.661 88.5685C262.706 85.6426 263.088 80.4153 263.088 80.4153C263.088 80.4153 263.51 73.9814 262.065 73.3827C260.62 72.7827 258.963 73.7439 258.44 74.8556C257.916 75.9676 258.051 78.5571 257.529 79.6686C257.005 80.7805 253.662 82.1207 252.255 82.0507C250.848 81.9821 252.431 63.0187 252.431 63.0187C252.431 63.0187 253.216 57.6415 253.615 55.8818C253.955 54.3814 255.321 49.9826 255.321 49.9826C255.321 49.9826 256.924 43.601 254.942 43.1132C253.774 42.8258 250.797 48.0112 248.757 53.514C246.559 59.4405 245.313 65.7255 244.685 65.6407C243.209 65.4423 243.991 55.0454 243.991 55.0454C243.991 55.0454 245.462 50.2826 245.424 48.0354C246.813 45.2821 247.734 40.173 245.29 39.7502C244.838 39.6722 241.617 46.1621 241.617 46.1621C241.617 46.1621 240.35 50.7314 239.612 52.8663C238.31 56.6327 238.113 62.5804 237.434 65.2033C236.868 67.3848 236.358 66.4883 236.125 66.5794C235.945 66.6502 236.261 63.6412 236.621 59.5048C236.803 57.4212 236.563 55.0182 237.146 52.6451C237.685 50.4483 237.994 47.3034 238.134 45.404C238.531 40.026 235.145 40.5768 233.974 45.4934C233.528 47.3667 233.059 49.4103 232.592 51.483C230.773 59.5445 230.824 67.3109 229.955 67.3756C228.827 67.4595 229.57 53.3189 229.57 53.3189C229.57 53.3189 227.838 45.4917 226.118 52.7558C224.122 61.1852 224.331 68.0582 224.358 68.3616C224.54 70.4198 223.052 77.7776 224.779 84.8716Z" fill="#F8A492"/>
<path d="M332.9 233.246C332.9 233.246 302.948 231.835 295.21 228.334C290.518 226.211 251.979 195.157 251.979 195.157L252.41 112.01L225.307 109.948C225.307 109.948 211.253 201.852 216.12 211.913C221.148 222.302 277.56 265.07 288.842 283.629C295.342 294.321 308.897 439.73 310.948 441.04C325.545 448.637 370.622 456.223 369.56 451.616C340.217 324.263 332.9 233.246 332.9 233.246Z" fill="#0172D0"/>
<path d="M466.827 197.113C516.61 197.113 556.968 156.755 556.968 106.972C556.968 57.1883 516.61 16.8308 466.827 16.8308C417.043 16.8308 376.686 57.1883 376.686 106.972C376.686 156.755 417.043 197.113 466.827 197.113Z" fill="#FAE0B2"/>
<path d="M520.312 160.458C549.852 130.918 549.852 83.0254 520.313 53.486C490.773 23.9466 442.88 23.9466 413.341 53.4861C383.801 83.0256 383.801 130.918 413.341 160.458C442.88 189.997 490.773 189.997 520.312 160.458Z" fill="#F7CC7F"/>
<path d="M443.408 155.54L447.713 143.668C442.436 141.483 437.541 138.566 433.717 135.575C430.526 133.08 429.822 128.535 432.106 125.189L432.381 124.785C434.897 121.097 440.031 120.302 443.51 123.101C447.054 125.952 451.328 128.577 456.217 130.351C463.34 132.933 469.211 131.951 471.023 126.952C472.745 122.205 469.833 117.755 461.719 111.278C449.98 101.932 443.122 92.3759 447.517 80.2544C451.504 69.2581 462.378 63.4447 476.7 65.6686L481.004 53.797L493.251 58.2375L489.264 69.2339C493.734 71.0849 497.248 73.0473 500.07 75.0134C503.518 77.4158 504.363 82.1622 501.993 85.6329C499.543 89.2217 494.603 90.0742 491.104 87.4982C488.48 85.5673 485.1 83.5603 480.69 81.961C472.567 79.0163 468.676 81.5639 467.407 85.0626C465.912 89.1864 469.334 93.396 478.506 101.246C491.472 111.886 494.979 120.934 490.902 132.18C486.869 143.302 475.553 149.945 460.276 147.234L455.655 159.98L443.408 155.54Z" fill="white"/>
<path d="M464.517 197.581C464.517 197.581 472.858 194.007 475.091 193.262C477.326 192.517 484.476 191.177 484.476 191.177C484.476 191.177 495.573 179.782 498.403 179.484C501.232 179.186 491.923 191.921 491.923 191.921L488.05 195.645C488.05 195.645 494.306 190.283 495.498 189.538C496.69 188.793 506.074 175.239 508.457 176.133C510.84 177.026 504.435 186.559 501.307 191.624C498.179 196.688 483.879 199.816 483.879 199.816L464.517 197.581Z" fill="#F7A491"/>
<path d="M564.204 234.38C564.187 236.614 513.533 237.23 503.034 282.147L496.281 279.928C511.326 234.267 561.48 236.106 563.935 234.426C563.967 234.402 563.983 234.376 563.98 234.38H564.204Z" fill="#F7CC7F"/>
<path d="M777.349 523.343L779.09 517.354C788.3 515.613 796.228 509.344 798.84 500.36C799.675 497.485 800.252 495.054 800.678 491.801L788.339 488.214L790.533 480.668L801.674 483.905C802.119 480.138 802.759 475.257 804.116 470.586C808.225 456.45 820.609 450.047 833.905 453.912C837.7 455.014 840.628 456.444 842.804 457.91C844.778 459.241 845.295 461.926 843.996 463.922C842.69 465.928 840.028 466.501 837.989 465.247C836.295 464.205 834.14 463.203 831.433 462.416C822.09 459.7 816.377 465.055 813.905 473.56C812.407 478.711 812.012 482.753 811.616 486.796L828.866 491.81L826.672 499.356L810.381 494.621C809.417 499.277 808.333 503.899 806.002 507.898C803.187 512.666 799.059 516.143 793.976 518.433L793.906 518.673L825.39 527.823C827.717 528.5 829.055 530.936 828.379 533.263L828.287 533.579C827.61 535.907 825.175 537.245 822.847 536.568L777.349 523.343Z" fill="#F7CC7F"/>
</svg>
