<svg width="32" height="34" viewBox="0 0 32 34" fill="none" xmlns="http://www.w3.org/2000/svg">
<path d="M30.6055 16.1523C30.7461 15.6836 30.8164 15.1992 30.8164 14.707C30.8164 13.6016 30.4531 12.5391 29.7969 11.6719C29.9375 11.2031 30.0078 10.7188 30.0078 10.2266C30.0078 9.12109 29.6445 8.05859 28.9883 7.19141C29.1289 6.72266 29.1992 6.23828 29.1992 5.74609C29.1992 3.73047 28 1.91406 26.1406 1.12109C25.8138 0.98019 25.4614 0.908374 25.1055 0.910156H6.66406V17.6289H6.67578L10.0273 29.7695C10.5664 31.7266 12.3633 33.0938 14.3945 33.0938C15.5547 33.0938 16.6367 32.6328 17.4375 31.7891C18.2383 30.9492 18.6484 29.8477 18.5898 28.6875L18.3555 23.8867H27.7266C28.1992 23.8867 28.6602 23.7617 29.0664 23.5234C30.6445 22.6055 31.625 20.9414 31.625 19.1875C31.625 18.082 31.2617 17.0195 30.6055 16.1523ZM0.375 2.15625V16.375C0.375 17.0664 0.933594 17.625 1.625 17.625H4.16406V0.90625H1.625C0.933594 0.90625 0.375 1.46484 0.375 2.15625Z" fill="#BDBDBD"/>
</svg>
