<svg width="32" height="34" viewBox="0 0 32 34" fill="none" xmlns="http://www.w3.org/2000/svg">
<path d="M30.6055 17.8477C30.7461 18.3164 30.8164 18.8008 30.8164 19.293C30.8164 20.3984 30.4531 21.4609 29.7969 22.3281C29.9375 22.7969 30.0078 23.2812 30.0078 23.7734C30.0078 24.8789 29.6445 25.9414 28.9883 26.8086C29.1289 27.2773 29.1992 27.7617 29.1992 28.2539C29.1992 30.2695 28 32.0859 26.1406 32.8789C25.8138 33.0198 25.4614 33.0916 25.1055 33.0898H6.66406V16.3711H6.67578L10.0273 4.23047C10.5664 2.27344 12.3633 0.90625 14.3945 0.90625C15.5547 0.90625 16.6367 1.36719 17.4375 2.21094C18.2383 3.05078 18.6484 4.15234 18.5898 5.3125L18.3555 10.1133H27.7266C28.1992 10.1133 28.6602 10.2383 29.0664 10.4766C30.6445 11.3945 31.625 13.0586 31.625 14.8125C31.625 15.918 31.2617 16.9805 30.6055 17.8477ZM0.375 31.8438V17.625C0.375 16.9336 0.933594 16.375 1.625 16.375H4.16406V33.0938H1.625C0.933594 33.0938 0.375 32.5352 0.375 31.8438Z" fill="#BDBDBD"/>
</svg>
