<svg width="1020" height="572" viewBox="0 0 1020 572" fill="none" xmlns="http://www.w3.org/2000/svg">
<path d="M872.083 53.0251C732.762 1.3367 591.16 47.0343 495.123 146.565C399.087 246.096 197.538 77.8674 90.6467 177.236C17.6989 245.05 51.1122 419.403 151.137 494.919C287.092 597.563 700.552 545.48 789.99 528.012C893.03 507.888 968.36 446.829 998.966 372.722C1072.71 194.159 933.652 75.8673 872.083 53.0251Z" fill="#E7F3FE"/>
<path d="M395.875 124.834C395.404 120.621 395.153 116.341 395.153 112.001C395.153 109.712 395.229 107.44 395.362 105.184L416.58 98.3228C417.886 89.3827 420.452 80.852 424.093 72.9159L410.024 55.6139C413.278 49.8911 417.009 44.4748 421.169 39.4232L442.39 46.3431C448.576 40.028 455.644 34.5823 463.399 30.2054L462.191 7.9238C468.114 5.22964 474.305 3.02505 480.716 1.36255L493.821 19.4342C498.928 18.575 504.173 18.1209 509.526 18.1209C513.174 18.1209 516.772 18.3361 520.312 18.7406L532.444 0C538.944 1.32133 545.244 3.19405 551.292 5.56653L551.265 27.8812C559.255 31.8481 566.599 36.916 573.098 42.89L593.918 34.8622C598.342 39.693 602.358 44.9027 605.907 50.4409L592.769 68.4657C596.836 76.2157 599.853 84.6014 601.626 93.4378L623.176 99.1683C623.647 103.382 623.898 107.662 623.898 112.001C623.898 114.291 623.822 116.563 623.689 118.819L602.471 125.68C601.165 134.62 598.599 143.151 594.958 151.087L609.027 168.389C605.773 174.112 602.042 179.528 597.882 184.58L576.66 177.66C570.475 183.975 563.407 189.421 555.652 193.797L556.86 216.079C550.937 218.773 544.746 220.978 538.335 222.64L525.23 204.568C520.123 205.428 514.878 205.882 509.526 205.882C505.877 205.882 502.279 205.667 498.739 205.262L486.607 224.003C480.107 222.681 473.807 220.809 467.759 218.436L467.786 196.122C459.796 192.155 452.452 187.087 445.952 181.113L425.133 189.14C420.709 184.31 416.692 179.1 413.143 173.562L426.282 155.537C422.215 147.787 419.198 139.401 417.424 130.565L395.875 124.834ZM509.526 156.831C534.3 156.831 554.385 136.76 554.385 112.001C554.385 87.2423 534.3 67.1712 509.526 67.1712C484.75 67.1712 464.666 87.2423 464.666 112.001C464.666 136.76 484.75 156.831 509.526 156.831Z" fill="#1B3E85"/>
<path d="M448.342 163.13C448.72 163.13 449.1 163.003 449.413 162.743C450.125 162.151 450.222 161.095 449.63 160.383C438.356 146.835 432.147 129.653 432.147 112.001C432.147 103.549 433.53 95.2488 436.259 87.3326C436.56 86.4576 436.095 85.504 435.219 85.2026C434.344 84.9012 433.39 85.366 433.088 86.2411C430.238 94.5094 428.794 103.176 428.794 112.001C428.794 130.434 435.278 148.377 447.052 162.526C447.383 162.924 447.861 163.13 448.342 163.13Z" fill="white"/>
<path d="M454.836 57.3201C455.249 57.3201 455.662 57.1691 455.986 56.8645C463.562 49.736 472.337 44.3326 482.068 40.804C482.939 40.4884 483.389 39.5274 483.073 38.6574C482.757 37.7874 481.794 37.3382 480.925 37.6538C470.762 41.339 461.597 46.9814 453.687 54.4245C453.013 55.0589 452.981 56.1194 453.615 56.793C453.945 57.1432 454.39 57.3201 454.836 57.3201Z" fill="white"/>
<path d="M526.925 38.6358C527.675 38.6358 528.358 38.1297 528.55 37.3699C528.776 36.4727 528.232 35.5618 527.334 35.3352C521.019 33.7423 514.485 32.9346 507.911 32.9346C506.985 32.9346 506.235 33.6848 506.235 34.6101C506.235 35.5355 506.985 36.2857 507.911 36.2857C514.208 36.2857 520.467 37.0592 526.514 38.5846C526.651 38.6193 526.79 38.6358 526.925 38.6358Z" fill="white"/>
<path d="M756.421 408.69C756.095 405.771 755.922 402.807 755.922 399.801C755.922 398.215 755.974 396.642 756.066 395.079L770.763 390.327C771.667 384.135 773.444 378.226 775.967 372.729L766.221 360.745C768.475 356.781 771.06 353.029 773.941 349.53L788.64 354.323C792.924 349.949 797.82 346.177 803.191 343.146L802.355 327.713C806.457 325.847 810.746 324.32 815.186 323.168L824.263 335.685C827.8 335.09 831.433 334.776 835.14 334.776C837.668 334.776 840.16 334.925 842.612 335.205L851.015 322.224C855.517 323.14 859.881 324.437 864.07 326.08L864.051 341.536C869.585 344.284 874.672 347.794 879.174 351.932L893.594 346.371C896.658 349.717 899.44 353.326 901.899 357.162L892.798 369.646C895.615 375.014 897.705 380.823 898.933 386.943L913.859 390.912C914.186 393.831 914.359 396.796 914.359 399.801C914.359 401.387 914.307 402.961 914.215 404.523L899.518 409.275C898.614 415.468 896.837 421.377 894.314 426.873L904.06 438.857C901.806 442.821 899.221 446.573 896.34 450.072L881.641 445.279C877.357 449.653 872.461 453.425 867.09 456.456L867.926 471.89C863.824 473.756 859.535 475.283 855.095 476.434L846.018 463.917C842.481 464.512 838.848 464.827 835.14 464.827C832.613 464.827 830.121 464.677 827.669 464.397L819.266 477.378C814.764 476.463 810.401 475.165 806.211 473.522L806.23 458.066C800.696 455.318 795.609 451.808 791.107 447.67L776.687 453.231C773.623 449.885 770.841 446.276 768.382 442.44L777.483 429.956C774.666 424.588 772.576 418.779 771.348 412.659L756.421 408.69ZM835.14 430.852C852.301 430.852 866.212 416.95 866.212 399.801C866.212 382.652 852.301 368.75 835.14 368.75C817.98 368.75 804.069 382.652 804.069 399.801C804.069 416.95 817.98 430.852 835.14 430.852Z" fill="#1B3E85"/>
<path d="M792.763 435.73C793.141 435.73 793.52 435.603 793.834 435.343C794.546 434.751 794.643 433.695 794.051 432.983C786.319 423.692 782.06 411.907 782.06 399.801C782.06 394.004 783.009 388.312 784.88 382.882C785.182 382.007 784.716 381.054 783.841 380.752C782.966 380.451 782.011 380.916 781.709 381.791C779.717 387.572 778.707 393.632 778.707 399.801C778.707 412.688 783.24 425.234 791.472 435.126C791.804 435.524 792.282 435.73 792.763 435.73Z" fill="white"/>
<path d="M797.261 362.442C797.673 362.442 798.086 362.291 798.41 361.986C803.606 357.097 809.625 353.391 816.298 350.971C817.169 350.655 817.618 349.694 817.303 348.824C816.987 347.954 816.024 347.505 815.155 347.821C808.049 350.397 801.642 354.342 796.111 359.546C795.437 360.181 795.405 361.241 796.04 361.915C796.37 362.265 796.815 362.442 797.261 362.442Z" fill="white"/>
<path d="M847.193 349.5C847.942 349.5 848.625 348.994 848.817 348.234C849.044 347.337 848.5 346.426 847.602 346.2C843.187 345.086 838.619 344.521 834.023 344.521C833.096 344.521 832.346 345.271 832.346 346.197C832.346 347.122 833.096 347.872 834.023 347.872C838.342 347.872 842.635 348.403 846.781 349.449C846.919 349.483 847.057 349.5 847.193 349.5Z" fill="white"/>
<path d="M327.383 210.21C327.383 209.344 327.408 208.484 327.454 207.629L316.443 198.793C317.306 194.384 318.658 190.15 320.444 186.151L334.663 185.077C337.895 179.979 342.081 175.545 346.97 172.026L347.017 157.866C350.977 155.79 355.199 154.147 359.624 153.006L369.341 163.457C371.017 163.277 372.719 163.181 374.443 163.181C378.725 163.181 382.872 163.756 386.815 164.827L397.958 156.007C402.162 157.834 406.115 160.131 409.744 162.838L407.636 176.876C411.791 181.008 415.176 185.911 417.562 191.352L431.425 194.563C432.596 198.84 433.298 203.311 433.472 207.917L421.263 214.972C420.642 221.151 418.821 226.975 416.041 232.214L422.154 245.009C419.532 248.592 416.518 251.87 413.171 254.777L400.078 249.652C394.932 253 389.091 255.371 382.816 256.497L376.645 269.194C375.91 269.221 375.172 269.24 374.43 269.24C370.732 269.24 367.114 268.897 363.604 268.247L359.443 254.799C353.382 252.763 347.874 249.527 343.198 245.374L329.438 248.465C326.614 245.153 324.151 241.527 322.107 237.645L330.083 225.938C328.337 221.02 327.383 215.727 327.383 210.21ZM374.958 230.93C385.904 230.93 394.778 222.062 394.778 211.123C394.778 200.183 385.904 191.315 374.958 191.315C364.011 191.315 355.137 200.183 355.137 211.123C355.137 222.062 364.011 230.93 374.958 230.93Z" fill="#1B3E85"/>
<path opacity="0.8" d="M144.162 96.0964H161.197C167.775 96.0964 173.127 90.7484 173.127 84.1747V67.1504C173.127 60.5767 167.775 55.2286 161.197 55.2286H144.162C137.584 55.2286 132.233 60.5767 132.233 67.1504V84.1747C132.233 90.7484 137.584 96.0964 144.162 96.0964ZM161.197 59.9202C165.187 59.9202 168.432 63.1637 168.432 67.1504V84.1747C168.432 88.1613 165.187 91.4048 161.197 91.4048H144.162C140.173 91.4048 136.927 88.1613 136.927 84.1747V67.1504C136.927 63.1637 140.173 59.9202 144.162 59.9202H161.197Z" fill="#1B3E85"/>
<g opacity="0.8">
<path d="M224.319 96.0964H241.354C247.932 96.0964 253.283 90.7484 253.283 84.1747V67.1504C253.283 60.5767 247.932 55.2286 241.354 55.2286H224.319C217.741 55.2286 212.389 60.5767 212.389 67.1504V84.1747C212.389 90.7484 217.741 96.0964 224.319 96.0964ZM241.354 59.9202C245.343 59.9202 248.588 63.1637 248.588 67.1504V84.1747C248.588 88.1613 245.343 91.4048 241.354 91.4048H224.319C220.329 91.4048 217.084 88.1613 217.084 84.1747V67.1504C217.084 63.1637 220.329 59.9202 224.319 59.9202H241.354Z" fill="#1B3E85"/>
</g>
<path d="M234.668 86.1854C234.636 86.1854 234.603 86.1846 234.571 86.1831C233.98 86.1545 233.431 85.8673 233.071 85.398L220.827 69.4378C220.152 68.5565 220.318 67.2944 221.2 66.6188C222.082 65.9436 223.344 66.1094 224.021 66.9912L234.819 81.0664L263.009 50.8824C263.767 50.0701 265.041 50.0269 265.853 50.7844C266.665 51.542 266.709 52.8144 265.951 53.6261L236.139 85.5466C235.758 85.955 235.225 86.1854 234.668 86.1854Z" fill="#F37168"/>
<path d="M87.8519 535.748C157.592 532.341 394.836 538.113 466.989 540.364C539.142 542.614 622.896 537.395 666.401 529.719C709.907 522.044 961.384 530.372 949.972 551.008C938.56 571.644 837.927 560.239 723.808 568.533C609.689 576.828 353.032 567.497 295.138 568.533C237.244 569.571 184.156 566.46 109.549 562.313C34.9421 558.166 47.4274 537.723 87.8519 535.748Z" fill="#1B3E85"/>
<path d="M800.683 104.232H946.467V343.026H800.683V104.232Z" fill="#99BBEB"/>
<path d="M805.476 109.098H938.832V333.925H805.476V109.098Z" fill="white"/>
<path d="M898.945 199.254C893.925 188.463 885.43 185.007 871.48 185.007C854.87 185.007 846.245 191.02 843.8 199.775C873.545 200.182 898.945 199.254 898.945 199.254Z" fill="#9BD6E8"/>
<path d="M877.281 132.523C884.312 134.496 884.004 138.444 886.347 142.109C888.69 145.774 893.783 148.217 894.395 150.66C895.006 153.104 892.826 158.194 895.413 161.044C898 163.895 898.877 165.32 897.858 168.17C896.839 171.021 894.598 175.5 894.395 176.111C894.191 176.722 891.338 180.997 887.875 181.608C884.411 182.219 877.892 183.237 874.632 184.662C871.372 186.088 860.891 182.838 855.073 183.041C849.256 183.245 845.294 178.961 845.702 176.111C846.109 173.26 841.412 167.56 841.423 162.673C841.436 157.426 847.535 153.511 849.165 150.05C850.795 146.588 848.961 140.48 855.073 136.862C858.936 134.576 861.593 134.779 864.649 133.761C867.705 132.743 872.799 131.266 877.281 132.523Z" fill="#3A384D"/>
<path d="M868.724 193.621C870.314 195.967 871.48 196.064 873.206 193.621C874.578 191.678 877.281 187.265 877.281 185.025V162.673C877.281 160.433 875.447 158.601 873.206 158.601H868.724C866.483 158.601 864.649 160.433 864.649 162.673V185.025C864.649 187.265 867.298 191.517 868.724 193.621Z" fill="#F09959"/>
<path d="M868.724 158.601H873.206C875.447 158.601 877.281 160.433 877.281 162.673V182.616C872.248 184.217 867.655 181.034 864.649 177.448V162.673C864.649 160.433 866.483 158.601 868.724 158.601Z" fill="#E38540"/>
<path d="M870.965 177.276C863.482 177.276 857.416 169.016 857.416 158.827C857.416 148.638 863.482 140.378 870.965 140.378C878.448 140.378 884.513 148.638 884.513 158.827C884.513 169.016 878.448 177.276 870.965 177.276Z" fill="#F09959"/>
<path d="M864.649 144.145C873.206 158.601 885.837 157.176 885.837 157.176C885.837 157.176 885.532 138.037 875.498 137.019C865.464 136.001 859.556 140.025 857.518 146.666C855.481 153.307 857.518 157.685 857.518 157.685C857.518 157.685 860.778 155.14 862.408 151.068C864.038 146.996 864.649 144.145 864.649 144.145Z" fill="#3A384D"/>
<path d="M884.052 164.899C882.274 164.055 881.859 161.209 883.126 158.543C884.393 155.877 886.863 154.4 888.641 155.244C890.42 156.088 890.835 158.934 889.567 161.6C888.3 164.266 885.831 165.744 884.052 164.899Z" fill="#F09959"/>
<path d="M859.415 158.543C860.682 161.209 860.267 164.055 858.488 164.899C856.71 165.744 854.241 164.266 852.973 161.6C851.706 158.934 852.121 156.088 853.9 155.244C855.678 154.4 858.147 155.877 859.415 158.543Z" fill="#F09959"/>
<path d="M865.871 168.833C865.871 168.833 868.152 171.787 870.965 171.787C873.778 171.787 876.058 168.833 876.058 168.833H865.871Z" fill="white"/>
<path d="M854.837 228.521H889.051C891.24 228.521 893.03 226.731 893.03 224.545C893.03 222.358 891.24 220.569 889.051 220.569H854.837C852.649 220.569 850.859 222.358 850.859 224.545C850.859 226.731 852.649 228.521 854.837 228.521Z" fill="#99BBEB"/>
<path d="M848.572 240.736H895.316C897.504 240.736 899.294 238.947 899.294 236.76C899.294 234.574 897.504 232.784 895.316 232.784H848.572C846.384 232.784 844.594 234.574 844.594 236.76C844.594 238.947 846.384 240.736 848.572 240.736Z" fill="#99BBEB"/>
<path d="M815.092 284.668H928.796C930.065 284.668 931.104 283.63 931.104 282.361C931.104 281.092 930.065 280.054 928.796 280.054H815.092C813.823 280.054 812.784 281.092 812.784 282.361C812.784 283.63 813.823 284.668 815.092 284.668Z" fill="#99BBEB"/>
<path d="M815.092 295.39H928.796C930.065 295.39 931.104 294.352 931.104 293.084C931.104 291.814 930.065 290.776 928.796 290.776H815.092C813.823 290.776 812.784 291.814 812.784 293.083C812.784 294.352 813.823 295.39 815.092 295.39Z" fill="#99BBEB"/>
<path d="M815.092 306.113H928.796C930.065 306.113 931.104 305.074 931.104 303.806C931.104 302.537 930.065 301.499 928.796 301.499H815.092C813.823 301.499 812.784 302.537 812.784 303.806C812.784 305.074 813.823 306.113 815.092 306.113Z" fill="#99BBEB"/>
<path d="M830.995 201.906H912.893C915.165 201.906 917.014 200.058 917.014 197.787V122.356C917.014 120.085 915.165 118.237 912.893 118.237H830.995C828.723 118.237 826.874 120.085 826.874 122.356V197.787C826.874 200.058 828.723 201.906 830.995 201.906ZM912.893 121.588C913.309 121.588 913.661 121.94 913.661 122.356V197.787C913.661 198.203 913.309 198.555 912.893 198.555H830.995C830.579 198.555 830.227 198.203 830.227 197.787V122.356C830.227 121.94 830.579 121.588 830.995 121.588H912.893Z" fill="#99BBEB"/>
<path d="M901.075 251.108L898.704 255.91L893.402 256.679L897.239 260.417L896.333 265.694L901.075 263.202L905.817 265.694L904.911 260.417L908.748 256.679L903.446 255.91L901.075 251.108Z" fill="#99BBEB"/>
<path d="M881.654 251.108L879.283 255.91L873.981 256.679L877.818 260.417L876.912 265.694L881.654 263.202L886.397 265.694L885.491 260.417L889.327 256.679L884.025 255.91L881.654 251.108Z" fill="#99BBEB"/>
<path d="M862.234 251.108L859.863 255.91L854.561 256.679L858.398 260.417L857.492 265.694L862.234 263.202L866.976 265.694L866.07 260.417L869.907 256.679L864.605 255.91L862.234 251.108Z" fill="#99BBEB"/>
<path d="M842.813 251.108L840.442 255.91L835.14 256.679L838.977 260.417L838.071 265.694L842.813 263.202L847.556 265.694L846.65 260.417L850.486 256.679L845.185 255.91L842.813 251.108Z" fill="#99BBEB"/>
<path d="M475.675 104.232H621.459V343.026H475.675V104.232Z" fill="#99BBEB"/>
<path d="M480.467 109.098H613.824V333.925H480.467V109.098Z" fill="white"/>
<path d="M567.602 157.61C567.602 168.306 561.157 185.563 545.956 185.009C530.755 184.455 527.393 168.005 526.804 163.363C526.215 158.721 567.602 157.61 567.602 157.61Z" fill="#7A4E34"/>
<path d="M573.936 199.254C568.917 188.463 560.422 185.007 546.471 185.007C529.861 185.007 521.236 191.02 518.792 199.775C548.537 200.182 573.936 199.254 573.936 199.254Z" fill="#D54A41"/>
<path d="M543.715 193.621C545.306 195.967 546.471 196.064 548.197 193.621C549.57 191.678 552.272 187.265 552.272 185.025V162.673C552.272 160.433 550.439 158.601 548.197 158.601H543.715C541.474 158.601 539.641 160.433 539.641 162.673V185.025C539.641 187.265 542.289 191.517 543.715 193.621Z" fill="#F09959"/>
<path d="M543.715 158.601H548.197C550.439 158.601 552.272 160.433 552.272 162.673V182.616C547.239 184.217 542.646 181.034 539.641 177.448V162.673C539.641 160.433 541.474 158.601 543.715 158.601Z" fill="#E38540"/>
<path d="M545.956 177.276C538.474 177.276 532.408 169.016 532.408 158.827C532.408 148.638 538.474 140.378 545.956 140.378C553.439 140.378 559.505 148.638 559.505 158.827C559.505 169.016 553.439 177.276 545.956 177.276Z" fill="#F09959"/>
<path d="M538.509 144.804C540.119 150.478 543.648 150.412 548.567 152.275C553.486 154.138 555.838 156.013 557.448 159.643C559.501 164.271 556.516 177.765 556.516 177.765C556.516 177.765 568.972 168.45 567.532 153.8C566.091 139.149 557.448 133.476 549.313 133.476C541.178 133.476 538.085 138.43 538.085 138.43C538.085 138.43 533.751 138.448 529.653 143.299C524.145 149.82 525.84 165.655 529.653 171.329C533.467 177.003 536.009 178.781 535.924 178.527C535.839 178.273 532.365 165.244 534.229 157.187C536.094 149.13 538.509 144.804 538.509 144.804Z" fill="#7A4E34"/>
<path d="M540.863 168.833C540.863 168.833 543.143 171.787 545.956 171.787C548.769 171.787 551.05 168.833 551.05 168.833H540.863Z" fill="white"/>
<path d="M529.828 228.521H564.043C566.231 228.521 568.021 226.731 568.021 224.545C568.021 222.358 566.231 220.569 564.043 220.569H529.828C527.64 220.569 525.85 222.358 525.85 224.545C525.85 226.731 527.64 228.521 529.828 228.521Z" fill="#99BBEB"/>
<path d="M523.564 240.736H570.307C572.496 240.736 574.286 238.947 574.286 236.76C574.286 234.574 572.496 232.784 570.307 232.784H523.564C521.376 232.784 519.585 234.574 519.585 236.76C519.585 238.947 521.376 240.736 523.564 240.736Z" fill="#99BBEB"/>
<path d="M490.084 284.668H603.787C605.057 284.668 606.096 283.63 606.096 282.361C606.096 281.092 605.057 280.054 603.787 280.054H490.084C488.814 280.054 487.775 281.092 487.775 282.361C487.775 283.63 488.814 284.668 490.084 284.668Z" fill="#99BBEB"/>
<path d="M490.084 295.39H603.787C605.057 295.39 606.096 294.352 606.096 293.084C606.096 291.814 605.057 290.776 603.787 290.776H490.084C488.814 290.776 487.775 291.814 487.775 293.083C487.775 294.352 488.814 295.39 490.084 295.39Z" fill="#99BBEB"/>
<path d="M490.084 306.113H603.787C605.057 306.113 606.096 305.074 606.096 303.806C606.096 302.537 605.057 301.499 603.787 301.499H490.084C488.814 301.499 487.775 302.537 487.775 303.806C487.775 305.074 488.814 306.113 490.084 306.113Z" fill="#99BBEB"/>
<path d="M505.987 201.906H587.884C590.157 201.906 592.006 200.058 592.006 197.787V122.356C592.006 120.085 590.157 118.237 587.884 118.237H505.987C503.714 118.237 501.865 120.085 501.865 122.356V197.787C501.865 200.058 503.714 201.906 505.987 201.906ZM587.884 121.588C588.301 121.588 588.652 121.94 588.652 122.356V197.787C588.652 198.203 588.301 198.555 587.884 198.555H505.987C505.57 198.555 505.219 198.203 505.219 197.787V122.356C505.219 121.94 505.57 121.588 505.987 121.588H587.884Z" fill="#99BBEB"/>
<path d="M576.066 251.108L573.696 255.91L568.394 256.679L572.23 260.417L571.324 265.694L576.066 263.202L580.809 265.694L579.903 260.417L583.739 256.679L578.438 255.91L576.066 251.108Z" fill="#99BBEB"/>
<path d="M556.646 251.108L554.275 255.91L548.973 256.679L552.81 260.417L551.904 265.694L556.646 263.202L561.388 265.694L560.482 260.417L564.319 256.679L559.017 255.91L556.646 251.108Z" fill="#99BBEB"/>
<path d="M537.225 251.108L534.854 255.91L529.552 256.679L533.389 260.417L532.483 265.694L537.225 263.202L541.968 265.694L541.062 260.417L544.898 256.679L539.596 255.91L537.225 251.108Z" fill="#99BBEB"/>
<path d="M517.805 251.108L515.434 255.91L510.132 256.679L513.968 260.417L513.063 265.694L517.805 263.202L522.547 265.694L521.641 260.417L525.478 256.679L520.176 255.91L517.805 251.108Z" fill="#99BBEB"/>
<path opacity="0.2" d="M605.071 340.636H835.14L818.866 105.119H596.775L605.071 340.636Z" fill="#99BBEB"/>
<path d="M611.855 60.5513H810.973V386.707H611.855V60.5513Z" fill="#99BBEB"/>
<path d="M618.401 67.1972H800.545V374.276H618.401V67.1972Z" fill="white"/>
<path d="M726.448 131.697C726.575 131.316 729.763 113.025 730.145 105.911C730.526 98.7977 718.705 97.7814 718.705 97.7814C718.705 97.7814 709.045 92.5734 702.054 95.2408C695.063 97.9085 690.305 102.397 687.128 107.986C683.95 113.575 689.923 130.993 689.923 130.993L726.448 131.697Z" fill="#2E2D3D"/>
<path d="M748.363 190.468C748.408 190.168 747.547 182.969 747.516 182.677C745.906 167.519 727.209 163.255 708.552 163.255C686.631 163.256 671.76 167.265 669.387 183.016C669.318 183.477 668.053 190.694 668.116 191.18C708.744 191.736 748.363 190.468 748.363 190.468Z" fill="#D5E1E8"/>
<path d="M704.788 175.021C706.96 178.225 708.552 178.358 710.91 175.021C712.784 172.368 719.044 166.314 719.044 163.255L716.475 132.751C716.475 129.692 713.971 127.189 710.91 127.189H704.788C701.727 127.189 699.222 129.692 699.222 132.751L698.029 163.255C698.029 166.314 702.84 172.147 704.788 175.021Z" fill="#F09959"/>
<path d="M704.788 127.189H710.91C713.971 127.189 716.475 129.692 716.475 132.751L718.705 159.812C711.831 161.999 702.549 157.554 698.444 152.656L699.222 132.751C699.222 129.692 701.727 127.189 704.788 127.189Z" fill="#E38540"/>
<path d="M728.858 165.48L719.044 183.608C719.044 183.608 713.79 179.29 713.282 180.136C712.773 180.983 714.214 191.67 714.214 191.67C714.214 191.67 702.52 191.829 702.011 191.321C701.503 190.813 704.384 179.713 703.198 179.713C702.011 179.713 698.444 182.931 698.444 182.931L687.485 165.48L689.894 164.893L707.849 174.547L727.052 165.105L728.858 165.48Z" fill="#BDCCD4"/>
<path d="M717.634 173.833L710.345 178.721L712.604 191.694L702.774 191.145L705.229 179.345L699.188 173.833L702.026 171.16H714.796L717.634 173.833Z" fill="#D54A41"/>
<path d="M718.536 156.594L727.551 165.167C727.551 165.167 718.366 181.491 717.858 181.491C717.349 181.491 710.063 172.491 710.063 172.491L705.398 172.41L698.029 180.136L689.465 164.998L698.198 155.748C698.198 155.748 705.655 170.144 707.011 170.482C708.367 170.821 708.376 170.991 709.473 170.144C710.57 169.297 718.536 156.594 718.536 156.594Z" fill="#D5E1E8"/>
<path d="M707.848 152.696C697.628 152.696 689.343 141.415 689.343 127.498C689.343 113.581 697.628 102.3 707.848 102.3C718.069 102.3 726.354 113.581 726.354 127.498C726.354 141.415 718.069 152.696 707.848 152.696Z" fill="#F09959"/>
<path d="M724.459 127.11C722.729 130.751 723.295 134.639 725.724 135.792C728.154 136.945 731.526 134.927 733.257 131.286C734.988 127.644 734.421 123.757 731.992 122.604C729.563 121.451 726.19 123.468 724.459 127.11Z" fill="#F09959"/>
<path d="M692.073 127.11C693.803 130.751 693.237 134.639 690.808 135.792C688.378 136.945 685.006 134.927 683.275 131.286C681.544 127.644 682.111 123.757 684.54 122.604C686.969 121.451 690.342 123.468 692.073 127.11Z" fill="#F09959"/>
<path d="M699.639 137.837C699.639 137.837 703.315 143.787 707.849 143.787C712.383 143.787 716.058 137.837 716.058 137.837H699.639Z" fill="white"/>
<path d="M718.705 110.357C711.079 105.022 707.647 105.911 701.927 114.676C696.207 123.441 689.343 123.595 689.343 123.595L688.453 114.507C688.453 114.507 696.973 98.0355 708.411 100.195C719.849 102.354 726.354 112.643 726.354 112.643C726.354 112.643 726.911 131.929 725.315 132.586C723.719 133.244 723.535 126.362 722.391 124.965C721.247 123.568 723.535 116.962 722.01 113.914C720.485 110.865 718.705 110.357 718.705 110.357Z" fill="#2E2D3D"/>
<path d="M694.173 120.265C691.511 123.178 692.521 134.746 691.123 134.619C689.725 134.492 689.216 123.568 689.597 122.424C689.979 121.281 694.173 120.265 694.173 120.265Z" fill="#2E2D3D"/>
<path d="M666.686 230.31H751.686C754.675 230.31 757.12 227.866 757.12 224.88C757.12 221.893 754.675 219.449 751.686 219.449H666.686C663.698 219.449 661.252 221.893 661.252 224.88C661.252 227.866 663.698 230.31 666.686 230.31Z" fill="#99BBEB"/>
<path d="M677.264 246.995H741.108C744.097 246.995 746.542 244.551 746.542 241.564C746.542 238.578 744.097 236.134 741.108 236.134H677.264C674.275 236.134 671.83 238.578 671.83 241.564C671.83 244.551 674.275 246.995 677.264 246.995Z" fill="#99BBEB"/>
<path d="M631.536 306.999H786.837C788.571 306.999 789.99 305.581 789.99 303.848C789.99 302.115 788.571 300.697 786.837 300.697H631.536C629.801 300.697 628.382 302.115 628.382 303.848C628.382 305.581 629.801 306.999 631.536 306.999Z" fill="#99BBEB"/>
<path d="M631.536 321.644H786.837C788.571 321.644 789.99 320.226 789.99 318.493C789.99 316.76 788.571 315.342 786.837 315.342H631.536C629.801 315.342 628.382 316.76 628.382 318.493C628.382 320.226 629.801 321.644 631.536 321.644Z" fill="#99BBEB"/>
<path d="M631.536 336.289H786.837C788.571 336.289 789.99 334.871 789.99 333.138C789.99 331.405 788.571 329.987 786.837 329.987H631.536C629.801 329.987 628.382 331.405 628.382 333.138C628.382 334.871 629.801 336.289 631.536 336.289Z" fill="#99BBEB"/>
<path d="M653.256 193.346H765.116C767.882 193.346 770.132 191.097 770.132 188.333V85.3054C770.132 82.5413 767.882 80.2927 765.116 80.2927H653.256C650.491 80.2927 648.241 82.5413 648.241 85.3054V188.333C648.241 191.097 650.491 193.346 653.256 193.346ZM765.116 83.6439C766.033 83.6439 766.779 84.3892 766.779 85.3054V188.333C766.779 189.249 766.033 189.995 765.116 189.995H653.256C652.34 189.995 651.594 189.249 651.594 188.333V85.3054C651.594 84.3892 652.34 83.6439 653.256 83.6439H765.116Z" fill="#99BBEB"/>
<path d="M762.448 261.162L759.209 267.719L751.968 268.771L757.208 273.875L755.971 281.083L762.448 277.68L768.925 281.083L767.688 273.875L772.928 268.771L765.686 267.719L762.448 261.162Z" fill="#99BBEB"/>
<path d="M735.922 261.162L732.684 267.719L725.442 268.771L730.682 273.875L729.445 281.083L735.922 277.68L742.399 281.083L741.162 273.875L746.402 268.771L739.161 267.719L735.922 261.162Z" fill="#99BBEB"/>
<path d="M709.397 261.162L706.158 267.719L698.917 268.771L704.157 273.875L702.92 281.083L709.397 277.68L715.874 281.083L714.637 273.875L719.877 268.771L712.635 267.719L709.397 261.162Z" fill="#99BBEB"/>
<path d="M682.872 261.162L679.633 267.719L672.391 268.771L677.631 273.875L676.394 281.083L682.872 277.68L689.348 281.083L688.111 273.875L693.352 268.771L686.11 267.719L682.872 261.162Z" fill="#99BBEB"/>
<path d="M655.925 261.162L652.686 267.719L645.445 268.771L650.684 273.875L649.448 281.083L655.925 277.68L662.402 281.083L661.165 273.875L666.405 268.771L659.163 267.719L655.925 261.162Z" fill="#99BBEB"/>
<path d="M292.064 376.224H547.575C549.11 376.224 550.355 374.979 550.355 373.445V369.28C550.355 367.746 549.11 366.501 547.575 366.501H292.064C290.528 366.501 289.283 367.746 289.283 369.28V373.445C289.283 374.979 290.528 376.224 292.064 376.224Z" fill="#2E5B9A"/>
<path d="M226.272 236.204C222.81 248.402 231.266 260.971 240.58 263.612C249.895 266.252 256.542 257.964 260.004 245.767C263.466 233.569 258.722 221.54 249.407 218.9C240.092 216.259 229.735 224.007 226.272 236.204Z" fill="#F09959"/>
<path d="M278.496 472.562C278.496 472.562 254.624 509.615 251.4 511.226C248.176 512.837 240.115 513.24 243.138 519.281C246.161 525.322 247.37 549.085 250.191 550.293C253.012 551.501 277.193 554.321 273.566 550.293C269.938 546.266 267.707 548.28 265.877 541.03C264.048 533.78 261.476 520.087 264.901 517.267C268.326 514.448 289.283 489.074 289.283 489.074L278.496 472.562Z" fill="#F09959"/>
<path d="M398.645 488.474C398.645 488.474 427.664 536.27 433.038 540.566C438.411 544.863 456.145 551.307 441.636 552.381C427.127 553.455 420.141 547.548 411.005 544.863C401.87 542.177 390.585 540.566 394.884 533.585C399.183 526.603 397.397 511.363 388.13 501.696C378.862 492.029 398.645 488.474 398.645 488.474Z" fill="#F09959"/>
<path d="M250.56 377.642C250.56 377.642 322.395 375.764 350.876 399.123C367.535 424.363 407.836 498.836 410.968 507.043C408.819 509.191 396.727 513.067 391.354 512.53C375.501 493.64 354.547 477.31 346.214 462.493C335.944 444.233 332.779 435.104 316.121 433.493C299.462 431.882 261.845 426.512 250.56 426.512C239.275 426.512 250.56 377.642 250.56 377.642Z" fill="#6791C9"/>
<path d="M187.917 552.51H191.683L218.685 439.926H210.401L187.917 552.51Z" fill="#2E5B9A"/>
<path d="M300.715 552.51H296.95L265.965 435.946H274.249L300.715 552.51Z" fill="#2E5B9A"/>
<path d="M209.635 372.724L251.4 379.928C251.4 379.928 306.9 380.438 332.269 385.16C355.349 389.456 358.75 415.664 332.269 451.752C317.226 472.252 304.507 488.605 278.496 507.043C271.88 502.188 269.349 500.352 267.52 488.672C269.403 486.092 274.276 469.948 275.788 466.789C290.175 436.735 309.378 425.806 309.644 422.849C306.42 417.613 224.241 450.141 207.901 431.007C192.301 412.738 209.635 372.724 209.635 372.724Z" fill="#75A1DE"/>
<path d="M207.901 278.235C218.9 276.691 230.103 278.781 240.58 286.361C249.736 295.688 260.095 311.068 259.46 336.438C258.654 368.658 264.449 370.727 258.404 379.588C233.191 389.993 190.068 434.699 200.223 386.771C207.576 352.068 184.096 326.2 203.038 287.705C204.58 284.572 206.506 281.533 207.901 278.235Z" fill="#F37168"/>
<path d="M259.467 348.564C259.957 365.361 262.331 370.309 260.516 375.575C250.237 376.624 231.435 380.735 226.737 387.308C221.363 394.826 215.989 395.9 218.497 390.351C221.004 384.802 227.632 376.926 217.422 349.895C207.212 322.864 202.375 304.605 212.406 285.809L259.467 348.564Z" fill="#D54A41"/>
<path d="M207.901 278.235C214.674 262.211 216.338 244.207 216.338 244.207L234.07 249.443C234.07 249.443 223.995 271.997 233.667 280.052C235.724 281.765 238.108 283.843 240.58 286.361C230.103 278.781 218.901 276.691 207.901 278.235Z" fill="#F09959"/>
<path d="M215.803 248.474C216.853 247.54 218.168 246.375 219.549 245.156L234.013 249.426C234.023 249.452 234.033 249.478 234.043 249.505C233.694 250.303 230.01 258.894 229.525 267.158C225.214 264.545 220.495 260.284 215.1 252.84C215.392 251.189 215.624 249.716 215.803 248.474Z" fill="#E38540"/>
<path d="M220.368 283.274C238.632 289.658 236.606 308.886 253.415 337.244C262.114 351.919 270.193 351.701 270.193 351.701C270.193 351.701 290.595 351.864 315.271 348.849C330.723 346.961 331.704 351.558 320.957 355.397C299.283 363.142 276.79 371.477 258.654 369.464C240.519 367.45 209.5 321.207 207.901 309.17C205.689 292.522 211.17 280.06 220.368 283.274Z" fill="#F09959"/>
<path d="M229.774 444.618C230.909 444.618 232.071 444.603 233.265 444.574C248.15 444.207 258.282 442.149 266.423 440.495C275.929 438.565 281.165 437.501 287.259 440.411C289.599 441.528 292.401 440.539 293.519 438.201C294.637 435.863 293.647 433.062 291.307 431.945C282.376 427.68 274.9 429.198 264.553 431.3C256.773 432.88 247.091 434.847 233.033 435.193C217.3 435.585 207.707 433.253 202.845 427.864C198.512 423.064 197.245 414.997 198.856 402.478C199.407 398.194 199.958 394.631 200.445 391.486C201.817 382.617 202.724 376.757 201.601 367.699C200.559 359.287 197.771 348.082 191.315 326.356C190.577 323.872 187.966 322.457 185.478 323.194C182.993 323.932 181.576 326.543 182.314 329.027C194.344 369.513 193.734 373.457 191.166 390.053C190.671 393.252 190.11 396.879 189.543 401.282C187.557 416.719 189.568 427.163 195.872 434.148C202.363 441.342 212.899 444.618 229.774 444.618Z" fill="#2E5B9A"/>
<path d="M396.673 528.758C415.927 538.169 426.291 543.561 432.463 543.047C433.92 542.926 435.128 542.777 436.141 542.62C443.008 546.675 453.968 551.468 441.636 552.381C427.126 553.455 420.141 547.548 411.005 544.863C401.87 542.177 390.585 540.566 394.884 533.585C395.707 532.247 396.306 530.605 396.673 528.758Z" fill="#D54A41"/>
<path d="M249.301 512.012C249.772 527.247 251.867 542.344 261.191 545.195C263.662 545.951 265.915 546.06 267.908 545.794C269.375 547.606 271.164 547.626 273.566 550.293C277.193 554.321 253.012 551.501 250.191 550.293C247.37 549.085 246.161 525.323 243.138 519.281C240.655 514.318 245.651 513.161 249.301 512.012Z" fill="#D54A41"/>
<path d="M323.467 367.833H384.637C386.464 367.833 388.124 366.774 388.894 365.119L413.613 311.953C414.706 309.603 413.685 306.813 411.334 305.721C408.982 304.63 406.191 305.649 405.098 307.999L381.641 358.45H323.467C320.874 358.45 318.773 360.55 318.773 363.142C318.773 365.733 320.874 367.833 323.467 367.833Z" fill="#75A1DE"/>
<path d="M310.669 349.381C323.029 349.202 335.287 341.839 341.378 342.913C347.468 343.987 367.351 357.771 364.843 358.308C362.335 358.845 346.572 350.68 346.035 350.556C345.497 350.432 342.094 356.211 333.675 358.334C325.256 360.457 333.615 352.029 307.518 359.905C290.55 365.026 310.669 349.381 310.669 349.381Z" fill="#F09959"/>
<path d="M209.72 263.612L207.901 278.235C207.901 278.235 223.895 279.186 231.854 283.661C239.813 288.136 251.558 301.066 251.558 301.066L241.962 284.556L240.58 273.994L209.72 263.612Z" fill="#F2E5DE"/>
<path d="M216.526 281.513C228.406 279.288 233.901 289.926 241.604 307.29C249.306 324.655 262.455 345.744 265.07 348.463C267.684 351.182 309.135 348.463 309.135 348.463C309.135 348.463 310.389 360.457 309.135 361.889C307.881 363.321 300.715 363.142 300.715 363.142C300.715 363.142 297.85 365.429 295.163 367.239C292.476 369.049 269.727 372.45 259.158 371.913C248.59 371.376 238.917 370.481 237.484 368.87C236.051 367.259 207.212 322.864 205.42 306.932C203.629 291 210.463 282.648 216.526 281.513Z" fill="#F2E5DE"/>
<path d="M251.558 208.476C274.026 209.551 270.502 243.328 270.502 243.328C270.502 243.328 264.666 245.129 252.441 243.115C253.381 239.49 252.979 230.226 252.979 230.226C252.979 230.226 251.558 237.745 249.754 242.31C247.17 243.494 244.246 242.444 239.275 241.243C236.723 251.976 229.51 256.511 224.571 258.062C219.114 259.777 213.338 261.822 206.89 258.599C200.441 255.377 203.987 222.439 207.412 215.816C212.551 205.873 221.094 196.975 235.872 201.674C243.283 204.031 251.558 208.476 251.558 208.476Z" fill="#303C60"/>
<path d="M212.487 248.593L203.301 262.001C203.301 262.001 213.481 287.42 183.873 298.937C160.684 307.956 163.416 323.848 173.894 339.83C184.373 355.812 167.625 369.769 167.625 369.769C167.625 369.769 165.07 352.065 142.541 348.723C111.821 344.166 103.122 302.949 126.067 282.339C145.055 265.284 150.831 279.408 163.684 264.103C176.536 248.799 200.799 259.137 200.799 259.137L209.692 246.176L212.487 248.593Z" fill="#303C60"/>
<path d="M115.5 323.86C115.632 323.86 115.767 323.828 115.891 323.76C116.287 323.543 116.432 323.047 116.216 322.651C108.491 308.544 114.795 291.452 117.965 286.822C118.301 286.332 118.62 285.834 118.957 285.308C122.072 280.449 125.948 274.402 146.633 270.681C151.614 269.784 155.648 266.826 159.918 263.693C168.739 257.222 178.735 249.887 200.458 259.878C200.869 260.067 201.353 259.888 201.541 259.478C201.73 259.068 201.551 258.583 201.141 258.395C178.546 248.001 168.135 255.638 158.951 262.376C154.838 265.394 150.953 268.245 146.343 269.074C124.957 272.921 120.867 279.301 117.581 284.427C117.25 284.943 116.938 285.43 116.616 285.9C113.295 290.751 106.691 308.658 114.782 323.435C114.931 323.706 115.211 323.86 115.5 323.86Z" fill="#303C60"/>
<path d="M217.393 262.332C218.862 262.332 220.452 262.204 222.164 261.948C230.024 260.771 240.57 256.307 241.397 231.238C241.412 230.787 241.058 230.41 240.607 230.395C240.148 230.387 239.779 230.733 239.764 231.184C239.423 241.517 237.372 249.163 233.667 253.908C230.852 257.513 227.12 259.554 221.921 260.333C214.648 261.421 209.825 260.08 207.591 256.343C207.359 255.957 206.857 255.831 206.471 256.061C206.084 256.293 205.957 256.794 206.188 257.181C208.237 260.608 211.996 262.332 217.393 262.332Z" fill="#303C60"/>
<path d="M522.966 552.51H516.93L493.447 373.122H506.727L522.966 552.51Z" fill="#2E5B9A"/>
<path d="M318.128 552.51H324.164L347.647 373.122H334.367L318.128 552.51Z" fill="#2E5B9A"/>
<path d="M81.3995 401.089C70.9558 410.618 75.4965 420.148 83.216 437.846C90.9356 455.544 92.2979 520.89 92.2979 520.89L85.9403 519.982C85.9403 519.982 86.8487 452.821 78.2211 434.67C69.5935 416.518 65.9608 407.442 58.2413 413.341C50.5217 419.24 81.3995 401.089 81.3995 401.089Z" fill="#74B570"/>
<path d="M87.1368 388.751C85.8682 383.103 78.336 376.992 68.2636 371.809C69.7611 380.138 74.5629 393.757 69.5935 396.551C62.8914 400.318 68.9402 381.303 66.3541 370.852C56.896 366.236 45.519 362.463 35.0408 360.586C35.0559 360.625 35.0673 360.662 35.0831 360.701C40.9861 375.676 48.7053 381.576 45.5268 383.845C43.1356 385.552 35.3463 368.254 25.0611 359.386C17.3409 358.975 10.8094 360.021 6.94559 363.078C0.973473 367.803 -3.0348 371.994 2.97138 386.382C6.40298 388.833 10.8471 390.589 16.0114 391.106C29.6339 392.467 35.9911 392.921 26.4555 397.459C21.7857 399.681 13.9591 397.333 7.61266 395.903C9.67148 399.694 12.2019 403.985 15.2772 408.872C17.2273 411.971 19.3765 414.663 21.6593 416.989C26.05 417.83 29.8775 417.84 31.9043 416.972C38.2615 414.249 54.6086 405.627 58.6955 409.257C62.6952 412.81 28.4206 415.061 30.7958 424.09C47.4088 433.656 66.4189 429.104 69.7795 420.321C74.2924 408.525 90.9558 405.75 87.1368 388.751Z" fill="#9CD499"/>
<path d="M52.7921 453.275C70.9557 439.661 89.5732 452.367 99.1089 466.888C108.645 481.41 101.833 514.083 101.833 514.083C101.833 514.083 98.2008 514.083 98.2008 512.722C98.2008 511.36 108.191 474.149 84.5783 457.359C69.8066 446.855 59.1493 451.914 57.7871 456.905C56.4248 461.897 63.6901 470.973 63.6901 470.973L52.7921 453.275Z" fill="#74B570"/>
<path d="M94.5682 425.291C76.405 425.291 70.5017 453.426 75.4966 469.762C80.4915 486.099 87.3029 516.503 87.3029 516.503L91.8436 511.965C91.8436 511.965 74.5885 469.308 78.675 450.249C82.7619 431.19 92.7517 428.013 94.5682 428.013C96.3843 428.013 94.5682 425.291 94.5682 425.291Z" fill="#9CD499"/>
<path d="M79.3342 469.889C78.0567 468.198 76.4783 466.8 74.5527 465.874C74.8052 467.225 75.1193 468.528 75.4965 469.762C77.7725 477.206 80.425 487.568 82.6391 496.646C82.8405 495.483 83.1503 493.693 83.629 490.928C83.742 490.276 83.8308 489.567 83.8923 488.817C82.1141 482.77 80.4329 476.184 79.3342 469.889Z" fill="#74B570"/>
<path d="M74.368 470.025C39.8576 455.504 58.0396 435.577 27.6156 448.737C25.4727 449.664 22.8611 452.002 20.2462 455.224C22.956 455.992 26.2373 456.545 29.886 455.997C38.9678 454.636 35.7891 461.897 20.8045 463.712C17.9797 464.054 15.6881 464.526 13.7825 465.193C6.64392 478.895 3.42617 496.925 18.5338 503.192C21.5109 504.427 25.1901 505.133 29.2861 505.397C33.948 501.694 28.1481 480.267 35.3352 483.225C42.2357 486.065 33.1729 501.593 34.4146 505.505C41.2258 505.382 48.7662 504.27 55.9726 502.486C58.8242 500.888 61.0012 498.747 61.6722 495.931C63.9426 486.402 48.9577 480.502 48.5035 472.334C48.086 464.825 53.9959 488.854 69.6528 492.391C83.8101 485.782 90.4997 476.813 74.368 470.025Z" fill="#9CD499"/>
<path d="M98.9577 444.35C95.325 436.636 104.861 434.82 104.407 440.72C104.004 445.947 103.96 458.654 109.324 462.114C118.577 461.112 131.164 457.386 140.68 451.707C140.8 450.94 140.684 450.15 140.279 449.342C136.193 441.174 109.856 434.367 118.029 431.644C124.539 429.476 135.945 442.275 145.137 448.722C150.658 444.536 154.356 439.546 154.356 433.976C154.356 426.438 145.19 417.904 133.336 413.825C128.001 414.362 123.046 417.277 115.305 421.661C103.87 428.136 106.514 417.667 117.326 411.453C107.993 411.935 98.6872 415.921 91.824 425.441C91.824 425.441 92.4734 429.511 88.1638 435.805C76.4063 452.978 89.9751 463.003 106.195 462.353C105.278 457.826 101.468 449.68 98.9577 444.35Z" fill="#9CD499"/>
<path d="M53.885 452.505C45.0049 459.363 35.1404 467.381 23.0308 472.826C10.9215 478.272 13.3435 496.021 13.3435 496.021C13.3435 496.021 11.527 480.692 21.6181 475.448C31.7095 470.204 38.3696 463.952 46.0391 462.741C53.7085 461.531 57.947 460.321 57.947 460.321C57.947 460.321 55.525 455.48 56.9377 453.665C58.3504 451.85 53.885 452.505 53.885 452.505Z" fill="#74B570"/>
<path d="M10.114 371.979C42.6081 380.651 66.4236 401.426 70.8638 406.468C75.3036 411.511 75.3036 412.923 75.3036 412.923L71.8727 419.377L70.2583 418.57C70.2583 418.57 72.882 413.124 66.0198 406.065C54.1859 393.891 39.7823 384.282 29.893 380.046C20.0036 375.811 10.114 371.979 10.114 371.979Z" fill="#74B570"/>
<path d="M99.808 551.723H87.3936C78.5659 551.723 71.4096 544.571 71.4096 535.749V507.245H115.792V535.749C115.792 544.571 108.636 551.723 99.808 551.723Z" fill="#75A1DE"/>
<path d="M71.4096 512.34H115.792V515.462H71.4096V512.34Z" fill="white"/>
<path d="M71.4096 518.033H115.792V519.87H71.4096V518.033Z" fill="white"/>
<path d="M909.421 512.918H898.831C896.594 512.918 894.782 511.106 894.782 508.871V500.156C894.782 497.921 896.594 496.109 898.831 496.109H909.421C911.657 496.109 913.47 497.921 913.47 500.156V508.871C913.47 511.106 911.657 512.918 909.421 512.918Z" fill="#1B3E85"/>
<path d="M943.4 512.918H932.81C930.574 512.918 928.761 511.106 928.761 508.871V500.156C928.761 497.921 930.574 496.109 932.81 496.109H943.4C945.636 496.109 947.449 497.921 947.449 500.156V508.871C947.449 511.106 945.636 512.918 943.4 512.918Z" fill="#1B3E85"/>
<path d="M977.379 512.918H966.789C964.553 512.918 962.74 511.106 962.74 508.871V500.156C962.74 497.921 964.553 496.109 966.789 496.109H977.379C979.616 496.109 981.428 497.921 981.428 500.156V508.871C981.428 511.106 979.616 512.918 977.379 512.918Z" fill="#1B3E85"/>
<path d="M10.3806 199.681V189.097C10.3806 186.862 12.1931 185.051 14.4294 185.051H23.1506C25.3873 185.051 27.2001 186.862 27.2001 189.097V199.681C27.2001 201.915 25.3873 203.727 23.1506 203.727H14.4294C12.1931 203.727 10.3806 201.915 10.3806 199.681Z" fill="#1B3E85"/>
<path d="M10.3806 233.638V223.054C10.3806 220.82 12.1931 219.008 14.4294 219.008H23.1506C25.3873 219.008 27.2001 220.82 27.2001 223.054V233.638C27.2001 235.873 25.3873 237.684 23.1506 237.684H14.4294C12.1931 237.684 10.3806 235.873 10.3806 233.638Z" fill="#1B3E85"/>
<path d="M10.3806 267.595V257.012C10.3806 254.777 12.1931 252.965 14.4294 252.965H23.1506C25.3873 252.965 27.2001 254.777 27.2001 257.012V267.595C27.2001 269.83 25.3873 271.641 23.1506 271.641H14.4294C12.1931 271.641 10.3806 269.83 10.3806 267.595Z" fill="#1B3E85"/>
</svg>
